# AST/ASF file generated using VICON BodyLanguage
# -----------------------------------------------
:version 1.10
:name VICON
:units
  mass 1.0
  length 0.45
  angle deg
:documentation
   .ast/.asf automatically generated from VICON data using
   VICON BodyBuilder and BodyLanguage model FoxedUp or BRILLIANT.MOD
:root
   order TX TY TZ RX RY RZ
   axis XYZ
   position 0 0 0  
   orientation 0 0 0 
:bonedata
  begin
     id 1 
     name lhipjoint
     direction 0.660183 -0.676772 0.325788 
     length 2.75133 
     axis 0 0 0  XYZ
  end
  begin
     id 2 
     name lfemur
     direction 0.34202 -0.939693 0  
     length 7.70317  
     axis 0 0 20  XYZ
    dof rx ry rz
    limits (-160.0 20.0)
           (-70.0 70.0)
           (-60.0 70.0)
  end
  begin
     id 3 
     name ltibia
     direction 0.342105 -0.939662 0   
     length 7.18701   
     axis 0 0 20   XYZ
    dof rx
    limits (-10.0 170.0)
  end
  begin
     id 4 
     name lfoot
     direction 0.14163 -0.389126 0.910232   
     length 2.41719   
     axis -90 7.62852e-016 20   XYZ
    dof rx rz
    limits (-45.0 90.0)
           (-70.0 20.0)
  end
  begin
     id 5 
     name ltoes
     direction 1.53533e-011 -4.21926e-011 1   
     length 1.18611   
     axis -90 7.62852e-016 20   XYZ
    dof rx
    limits (-90.0 20.0)
  end
  begin
     id 6 
     name rhipjoint
     direction -0.6658 -0.67229 0.323631   
     length 2.76968  
     axis 0 0 0  XYZ 
  end
  begin
     id 7 
     name rfemur
     direction -0.34202 -0.939693 0   
     length 7.92547   
     axis 0 0 -20   XYZ
    dof rx ry rz
    limits (-160.0 20.0)
           (-70.0 70.0)
           (-70.0 60.0)
  end
  begin
     id 8 
     name rtibia
     direction -0.342022 -0.939692 0   
     length 7.22641   
     axis 0 0 -20   XYZ
    dof rx
    limits (-10.0 170.0)
 end
 begin
     id 9 
     name rfoot
     direction -0.105675 -0.29034 0.951071   
     length 2.48149  
     axis -90 -7.62852e-016 -20   XYZ
    dof rx rz
    limits (-45.0 90.0)
           (-20.0 70.0)
  end
  begin
     id 10 
     name rtoes
     direction -1.5349e-011 -4.21859e-011 1   
     length 1.23343   
     axis -90 -7.62852e-016 -20   XYZ
    dof rx
    limits (-90.0 20.0)
  end
  begin
     id 11 
     name lowerback
     direction 0.0104173 0.993624 -0.112266   
     length 2.00527   
     axis 0 0 0   XYZ
    dof rx ry rz
    limits (-20.0 45.0)
           (-30.0 30.0)
           (-30.0 30.0)
  end
  begin
     id 12 
     name upperback
     direction 0.00733149 0.999856 -0.0152913   
     length 2.01385   
     axis 0 0 0   XYZ
    dof rx ry rz
    limits (-20.0 45.0)
           (-30.0 30.0)
           (-30.0 30.0)
  end
  begin
     id 13 
     name thorax
     direction 0.0026304 0.999318 0.036841   
     length 2.03734   
     axis 0 0 0   XYZ
    dof rx ry rz
    limits (-20.0 45.0)
           (-30.0 30.0)
           (-30.0 30.0)
  end
  begin
     id 14 
     name lowerneck
     direction 0.0293154 0.998757 0.0403082   
     length 1.65303   
     axis 0 0 0   XYZ
    dof rx ry rz
    limits (-20.0 45.0)
           (-30.0 30.0)
           (-30.0 30.0)
  end
  begin
     id 15 
     name upperneck
     direction -0.0376619 0.998184 -0.0470083   
     length 1.60926   
     axis 0 0 0   XYZ
    dof rx ry rz
    limits (-20.0 45.0)
           (-30.0 30.0)
           (-30.0 30.0)
  end
  begin
     id 16
     name head
     direction -0.0170133 0.999635 -0.0209778  
     length 1.73625  
     axis 0 0 0   XYZ
    dof rx ry rz
    limits (-20.0 45.0)
           (-30.0 30.0)
           (-30.0 30.0)
  end
  begin
     id 17 
     name lclavicle
     direction 0.919857 0.39181 -0.0186333  
     length 3.75313  
     axis 0 0 0   XYZ
    dof ry rz
    limits (-20.0 10.0)
           (0.0 20.0)
  end
  begin
     id 18 
     name lhumerus
     direction 1 -4.48988e-011 1.44029e-027   
     length 5.49313   
     axis 180 -30 -90   XYZ
    dof rx ry rz
    limits (-60.0 90.0)
           (-90.0 90.0)
           (-90.0 90.0)
  end
  begin
     id 19
     name lradius
     direction 1 -4.48924e-011 7.46281e-027   
     length 3.29037   
     axis 180 -30 -90   XYZ
    dof rx
    limits (-10.0 170.0)
  end
  begin
     id 20
     name lwrist
     direction 1 -4.48955e-011 2.19879e-026   
     length 1.64519   
     axis -1.34358e-014 90 90   XYZ
    dof ry
    limits (-180.0 0.0)
 end
  begin
     id 21 
     name lhand
     direction 1 -4.48978e-011 4.39747e-026   
     length 0.729656   
     axis -2.80598e-014 90 90   XYZ
    dof rx rz
    limits (-90.0 90.0)
           (-45.0 45.0)
  end
  begin
     id 22 
     name lfingers
     direction 1 -4.49071e-011 8.79411e-026   
     length 0.588268   
     axis -5.61193e-014 90 90   XYZ
    dof rx
    limits (0.0 90.0)
  end
  begin
     id 23
     name lthumb
     direction 0.707107 -6.34817e-011 0.707107   
     length 0.844638   
     axis -90 45 -9.86923e-015   XYZ
    dof rx rz
    limits (-45.0 45.0)
           (-45.0 45.0)
  end
  begin
     id 24 
     name rclavicle
     direction -0.919898 0.388279 0.0550233   
     length 3.7171  
     axis 0 0 0   XYZ 
    dof ry rz
    limits (-10.0 20.0)
           (-20.0 0.0)
  end
  begin
     id 25 
     name rhumerus
     direction -1 -4.48968e-011 9.98372e-028  
     length 5.23684   
     axis 180 30 90   XYZ
    dof rx ry rz
    limits (-90.0 60.0)
           (-90.0 90.0)
           (-90.0 90.0)
  end
  begin
     id 26 
     name rradius
     direction -1 -4.48956e-011 1.01023e-026   
     length 3.38251   
     axis 180 30 90   XYZ
    dof rx
    limits (-10.0 170.0)
  end
  begin
     id 27 
     name rwrist
     direction -1 -4.4892e-011 2.19886e-026   
     length 1.69126   
     axis -1.34358e-014 -90 -90   XYZ
    dof ry
    limits (-180.0 0.0)
  end
  begin
     id 28
     name rhand
     direction -1 -4.49024e-011 4.39727e-026   
     length 0.691454   
     axis -2.80598e-014 -90 -90   XYZ
    dof rx rz
    limits (-90.0 90.0)
           (-45.0 45.0)
  end
  begin
     id 29
     name rfingers
     direction -1 -4.49097e-011 8.79388e-026   
     length 0.557468   
     axis -5.61193e-014 -90 -90   XYZ
    dof rx
    limits (0.0 90.0)
  end
  begin
     id 30
     name rthumb
     direction -0.707107 -6.34938e-011 0.707107   
     length 0.800416   
     axis -90 -45 9.86923e-015   XYZ
    dof rx rz
    limits (-45.0 45.0)
           (-45.0 45.0)
  end
:hierarchy
  begin
    root lhipjoint rhipjoint lowerback
    lhipjoint lfemur
    lfemur ltibia
    ltibia lfoot
    lfoot ltoes
    rhipjoint rfemur
    rfemur rtibia
    rtibia rfoot
    rfoot rtoes
    lowerback upperback
    upperback thorax
    thorax lowerneck lclavicle rclavicle
    lowerneck upperneck
    upperneck head
    lclavicle lhumerus
    lhumerus lradius
    lradius lwrist
    lwrist lhand lthumb
    lhand lfingers
    rclavicle rhumerus
    rhumerus rradius
    rradius rwrist
    rwrist rhand rthumb
    rhand rfingers
  end

#!OML:ASF H:\BabyWalks\Project 1\Capture day 1\Session 1\baby.ASF
:FULLY-SPECIFIED
:DEGREES
1
root -32.0802 17.8003 -22.5926 -7.26148 75.553 -13.5153
lowerback 13.0091 0.0336062 -0.604859
upperback 10.0872 0.460572 3.32351
thorax 3.31316 0.295108 3.79077
lowerneck -3.15686 3.47491 1.25674
upperneck -7.5704 4.4693 -5.80969
head -1.67049 2.371 -2.07124
rclavicle -1.23246e-014 -1.43125e-014
rhumerus -50.4631 28.6422 -88.9535
rradius 47.7598
rwrist 1.98433
rhand -14.5925 -14.5561
rfingers 7.12502
rthumb 11.5577 -44.2174
lclavicle -1.23246e-014 -1.43125e-014
lhumerus -48.0836 -3.7155 84.8818
lradius 51.7609
lwrist -2.36099
lhand 3.45966 10.5196
lfingers 7.12502
lthumb 28.8997 38.3005
rfemur 5.19534 14.7378 24.3268
rtibia 9.0394
rfoot -20.8136 -4.2455
rtoes 7.69343
lfemur -24.0111 -4.99509 -11.1266
ltibia 35.1896
lfoot -12.3464 -16.8737
ltoes 26.4497
2
root -32.0785 17.8009 -22.5935 -7.21043 75.5399 -13.4731
lowerback 13.0042 0.039829 -0.604082
upperback 10.075 0.46793 3.31776
thorax 3.30215 0.298831 3.78329
lowerneck -3.13274 3.47319 1.27824
upperneck -7.56431 4.46542 -5.82986
head -1.67204 2.36888 -2.08207
rclavicle 5.96354e-015 -1.19271e-014
rhumerus -50.4789 28.6199 -88.9508
rradius 47.777
rwrist 1.96567
rhand -14.6138 -14.5459
rfingers 7.12502
rthumb 11.5373 -44.2083
lclavicle 5.96354e-015 -1.19271e-014
lhumerus -47.9709 -3.86128 84.9151
lradius 51.5028
lwrist -2.25345
lhand 3.32981 10.4449
lfingers 7.12502
lthumb 28.7757 38.247
rfemur 5.18347 14.7538 24.3079
rtibia 9.04034
rfoot -20.7719 -4.24611
rtoes 7.55293
lfemur -24.0037 -4.99037 -11.1431
ltibia 35.1719
lfoot -12.3858 -16.8545
ltoes 26.366
3
root -32.0769 17.8015 -22.5946 -7.15617 75.524 -13.4284
lowerback 12.9982 0.0467696 -0.604732
upperback 10.0631 0.476059 3.3116
thorax 3.29185 0.302855 3.7761
lowerneck -3.10815 3.47158 1.29989
upperneck -7.56141 4.46162 -5.85026
head -1.67469 2.36689 -2.0931
rclavicle -4.96962e-015 -7.15625e-015
rhumerus -50.4939 28.5993 -88.9502
rradius 47.7957
rwrist 1.94039
rhand -14.6342 -14.5402
rfingers 7.12502
rthumb 11.5176 -44.2037
lclavicle -4.96962e-015 -7.15625e-015
lhumerus -47.8578 -4.00587 84.9464
lradius 51.2441
lwrist -2.14434
lhand 3.21497 10.3423
lfingers 7.12502
lthumb 28.666 38.163
rfemur 5.16837 14.7727 24.2884
rtibia 9.04695
rfoot -20.7281 -4.24893
rtoes 7.40028
lfemur -23.9976 -4.9841 -11.1594
ltibia 35.1553
lfoot -12.4213 -16.8357
ltoes 26.3125
4
root -32.0753 17.8022 -22.5957 -7.09693 75.5072 -13.3794
lowerback 12.9909 0.054348 -0.605559
upperback 10.0509 0.484941 3.30462
thorax 3.28189 0.307248 3.76808
lowerneck -3.08387 3.46953 1.3201
upperneck -7.55987 4.45733 -5.86843
head -1.67782 2.36468 -2.10318
rclavicle 1.21259e-014 -1.94809e-014
rhumerus -50.5116 28.5802 -88.9519
rradius 47.8171
rwrist 1.91323
rhand -14.6559 -14.531
rfingers 7.12502
rthumb 11.4966 -44.1957
lclavicle 1.21259e-014 -1.94809e-014
lhumerus -47.7457 -4.15283 84.9773
lradius 50.9862
lwrist -2.03304
lhand 3.09088 10.2572
lfingers 7.12502
lthumb 28.5474 38.0978
rfemur 5.15363 14.7926 24.2677
rtibia 9.05277
rfoot -20.6849 -4.25648
rtoes 7.24312
lfemur -23.9927 -4.97823 -11.1765
ltibia 35.1391
lfoot -12.448 -16.8196
ltoes 26.21
5
root -32.0736 17.8028 -22.5968 -7.04164 75.4922 -13.3337
lowerback 12.9837 0.0612513 -0.60628
upperback 10.039 0.49299 3.29784
thorax 3.27234 0.311232 3.76031
lowerneck -3.0596 3.46637 1.3401
upperneck -7.55949 4.45156 -5.88668
head -1.68139 2.36177 -2.11328
rclavicle 1.45113e-014 3.33958e-014
rhumerus -50.5298 28.5629 -88.9564
rradius 47.8383
rwrist 1.88732
rhand -14.6783 -14.5229
rfingers 7.12502
rthumb 11.475 -44.1888
lclavicle 1.45113e-014 3.33958e-014
lhumerus -47.6371 -4.30376 85.0091
lradius 50.7324
lwrist -1.91466
lhand 2.9405 10.2244
lfingers 7.12502
lthumb 28.4037 38.0892
rfemur 5.13987 14.8107 24.2477
rtibia 9.05941
rfoot -20.6402 -4.26079
rtoes 7.08777
lfemur -23.9881 -4.97426 -11.1928
ltibia 35.124
lfoot -12.4746 -16.8086
ltoes 26.103
6
root -32.0718 17.8035 -22.5979 -6.97493 75.4718 -13.2837
lowerback 12.9654 0.0699453 -0.607084
upperback 10.0264 0.503002 3.29015
thorax 3.26778 0.316067 3.75146
lowerneck -3.03724 3.46297 1.35827
upperneck -7.55979 4.4456 -5.90292
head -1.68494 2.35878 -2.12238
rclavicle -1.64991e-014 3.89618e-014
rhumerus -50.5483 28.5468 -88.964
rradius 47.8586
rwrist 1.86276
rhand -14.7019 -14.5095
rfingers 7.12502
rthumb 11.4523 -44.1767
lclavicle -1.64991e-014 3.89618e-014
lhumerus -47.5315 -4.4608 85.0424
lradius 50.4808
lwrist -1.78811
lhand 2.76527 10.2312
lfingers 7.12502
lthumb 28.2362 38.1238
rfemur 5.11805 14.8346 24.2252
rtibia 9.06588
rfoot -20.5921 -4.26535
rtoes 6.9118
lfemur -23.9898 -4.96412 -11.2088
ltibia 35.1101
lfoot -12.4996 -16.7957
ltoes 25.9876
7
root -32.0698 17.8041 -22.5989 -6.91834 75.4564 -13.2405
lowerback 12.9491 0.0772512 -0.607433
upperback 10.0149 0.51139 3.28321
thorax 3.26349 0.320137 3.74334
lowerneck -3.01577 3.4584 1.37556
upperneck -7.55956 4.43813 -5.91882
head -1.68824 2.35503 -2.13119
rclavicle 2.52457e-014 1.98785e-015
rhumerus -50.5675 28.5307 -88.9737
rradius 47.8789
rwrist 1.83803
rhand -14.7267 -14.4947
rfingers 7.12502
rthumb 11.4283 -44.1633
lclavicle 2.52457e-014 1.98785e-015
lhumerus -47.4271 -4.62062 85.077
lradius 50.2327
lwrist -1.65709
lhand 2.58478 10.2536
lfingers 7.12502
lthumb 28.0637 38.1746
rfemur 5.10386 14.853 24.2061
rtibia 9.06859
rfoot -20.5443 -4.27026
rtoes 6.73857
lfemur -23.9899 -4.95799 -11.224
ltibia 35.0981
lfoot -12.5404 -16.7866
ltoes 25.8559
